<?xml version="1.0" standalone="no"?>
<!DOCTYPE svg PUBLIC "-//W3C//DTD SVG 1.1//EN" "http://www.w3.org/Graphics/SVG/1.1/DTD/svg11.dtd" >
<svg xmlns="http://www.w3.org/2000/svg" xmlns:xlink="http://www.w3.org/1999/xlink" version="1.1">
<metadata></metadata>
<defs>
<font id="pf_centro_slab_probold" horiz-adv-x="1222" >
<font-face units-per-em="2048" ascent="1536" descent="-512" />
<missing-glyph horiz-adv-x="608" />
<glyph horiz-adv-x="0" />
<glyph horiz-adv-x="682" />
<glyph unicode=" "  horiz-adv-x="608" />
<glyph unicode="&#x09;" horiz-adv-x="608" />
<glyph unicode="&#xa0;" horiz-adv-x="608" />
<glyph unicode="!" horiz-adv-x="575" d="M135 119q0 61 44.5 103t109.5 42q67 0 109 -41.5t42 -103.5q0 -60 -43 -103t-108 -43q-67 0 -110.5 43t-43.5 103zM156 1444h266l-2 -545l-29 -504h-203l-26 504z" />
<glyph unicode="&#x22;" horiz-adv-x="741" d="M100 1411h236l-41 -493h-158zM418 1411h233l-37 -493h-159z" />
<glyph unicode="#" horiz-adv-x="1200" d="M119 403l12 138h172l62 268h-168l10 135h190l86 361h154l-84 -361h235l86 361h154l-82 -361h150l-11 -135h-172l-63 -268h166l-10 -138h-185l-92 -403h-158l93 403h-234l-94 -403h-158l94 403h-153zM461 541h233l62 268h-234z" />
<glyph unicode="$" d="M145 989q0 157 91 257.5t249 127.5v142h84v-1672h-84v170q-188 16 -333 92v308h167v-158q69 -33 166 -43v422q-76 24 -132 51t-106 68t-76 100.5t-26 134.5zM367 1014q0 -60 29 -94t89 -60v314q-118 -34 -118 -160zM637 -156v1672h88v-140q162 -14 272 -76v-299h-166v156 q-47 20 -106 29v-400q45 -15 77.5 -27t73.5 -31.5t70 -39.5t59.5 -48.5t49 -60.5t30 -75t11.5 -92q0 -164 -99.5 -264.5t-271.5 -127.5v-176h-88zM725 223q66 14 104.5 58.5t38.5 119.5q0 60 -36.5 97.5t-106.5 64.5v-340z" />
<glyph unicode="%" horiz-adv-x="1843" d="M43 952q0 66 10.5 124.5t36.5 114.5t67 96t106 64.5t149 24.5q85 0 150.5 -25t104 -65t63 -97.5t33.5 -114t9 -122.5q0 -85 -19 -156.5t-59.5 -131t-113 -93.5t-170.5 -34q-367 0 -367 415zM252 950q0 -62 6.5 -106t23 -82t49 -57t81.5 -19q149 0 149 266q0 41 -2.5 73.5 t-11.5 71.5t-24 65t-43.5 43.5t-67.5 17.5q-41 0 -71 -17t-46.5 -43t-26.5 -64.5t-13 -72.5t-3 -76zM518 -41l645 1491h168l-645 -1491h-168zM1065 408q0 66 10.5 124.5t36.5 114.5t67 95.5t106 64t149 24.5q85 0 150.5 -25t104 -65t63 -96.5t33.5 -113t9 -121.5 q0 -85 -19 -157t-59.5 -132t-113 -94.5t-170.5 -34.5q-104 0 -178 33.5t-114 93.5t-57.5 130.5t-17.5 158.5zM1274 406q0 -62 6.5 -106t23 -82t49 -57.5t81.5 -19.5q149 0 149 267q0 41 -2.5 74t-11.5 72t-24 65t-43.5 43.5t-67.5 17.5q-41 0 -71 -17t-46.5 -43t-26.5 -65 t-13 -73t-3 -76z" />
<glyph unicode="&#x26;" horiz-adv-x="1615" d="M98 381q0 265 326 438q-105 135 -105 275q0 54 18 105.5t55 99t105.5 77t159.5 29.5q77 0 139 -20.5t100 -51.5t63 -71t35 -76.5t10 -71.5q0 -57 -22.5 -109t-64.5 -96t-86.5 -77.5t-105.5 -69.5q102 -137 188 -238q106 -120 142 -157q136 132 164 297h-144v178h500v-178 h-131q-41 -241 -238 -435q148 -131 293 -196l-96 -166q-79 33 -183.5 99.5t-181.5 135.5q-200 -133 -448 -133q-140 0 -249.5 45.5t-176 140t-66.5 226.5zM348 397q0 -113 74.5 -175t193.5 -62q134 0 267 84q-56 58 -154 176q-135 164 -190 235q-191 -107 -191 -258z M545 1104q0 -77 80 -191q82 44 129 90t47 111q0 57 -36.5 90t-98.5 33q-59 0 -90 -41.5t-31 -91.5z" />
<glyph unicode="'" horiz-adv-x="489" d="M125 1411h235l-38 -493h-160z" />
<glyph unicode="(" horiz-adv-x="677" d="M127 573q0 142 30.5 280t82 250t108.5 200t121 157l123 -78q-25 -36 -50 -80.5t-57.5 -121.5t-56.5 -161t-40.5 -200.5t-16.5 -238.5q0 -167 23.5 -314.5t62 -250.5t71 -166.5t66.5 -110.5l-123 -84q-64 70 -121 158t-109.5 202.5t-83 259.5t-30.5 299z" />
<glyph unicode=")" horiz-adv-x="681" d="M78 1382l125 78q64 -69 120.5 -157t108 -200t81.5 -250t30 -280q0 -154 -30.5 -298.5t-82.5 -259t-109 -202t-122 -157.5l-119 82q34 50 65 111.5t70.5 166t63.5 252.5t24 314q0 122 -17 238t-41.5 200t-57.5 161t-58.5 121.5t-50.5 79.5z" />
<glyph unicode="*" horiz-adv-x="862" d="M90 1098q25 123 68 211q13 -8 215 -123q-2 10 -21.5 100.5t-27.5 136.5q43 7 112 7q68 0 109 -7q-46 -222 -49 -237q38 20 110.5 60.5t106.5 58.5q18 -32 31.5 -69.5t20 -65t15.5 -72.5q-193 -28 -250 -33l179 -166q-71 -71 -170 -129l-107 225q-14 -31 -49 -106 t-53 -117q-98 52 -176 127q174 162 180 168z" />
<glyph unicode="+" d="M207 535v170h336v337h174v-337h334v-170h-334v-349h-174v349h-336z" />
<glyph unicode="," horiz-adv-x="534" d="M98 -197q103 97 117 207q-111 11 -111 133q0 60 44.5 103t113.5 43q78 0 120 -52t42 -128q0 -108 -71.5 -219t-182.5 -177z" />
<glyph unicode="-" horiz-adv-x="802" d="M121 449v202h561v-202h-561z" />
<glyph unicode="." horiz-adv-x="534" d="M106 135q0 65 47 111.5t111 46.5q66 0 112 -46t46 -112q0 -64 -46.5 -111t-109.5 -47q-65 0 -112.5 47t-47.5 111z" />
<glyph unicode="/" horiz-adv-x="757" d="M16 -68l531 1514h198l-530 -1514h-199z" />
<glyph unicode="0" d="M57 676q0 110 15.5 206.5t55 190.5t101 161.5t160 108.5t225.5 41q128 0 226.5 -42.5t157.5 -109.5t97 -162t52 -189t14 -201q0 -112 -17.5 -211t-58 -189t-102 -155t-156 -103t-213.5 -38q-557 0 -557 692zM344 674q0 -88 6.5 -156.5t24.5 -132.5t47.5 -105.5t78 -66.5 t113.5 -25q260 0 260 488q0 52 -2 96t-8.5 97.5t-17.5 95t-30.5 83t-46.5 69t-66.5 44.5t-88.5 17q-270 0 -270 -504z" />
<glyph unicode="1" d="M143 1241l369 125h252v-1178h285v-188h-859v188h291v936q-9 -1 -83 -11t-142 -18.5t-82 -9.5z" />
<glyph unicode="2" d="M80 0v170q237 200 315 273q315 293 346 479q4 22 4 43q0 196 -231 196q-161 0 -342 -106q-16 28 -44.5 85.5t-43.5 86.5q225 155 477 155q219 0 346 -104.5t127 -296.5q0 -81 -35.5 -169.5t-86 -161t-128 -155t-138.5 -138.5t-140 -126q-32 -28 -47 -41v-2q69 0 210 -1 t210 -1v158h213v-344h-1012z" />
<glyph unicode="3" d="M98 74q34 105 66 186q197 -61 342 -61t225 61.5t80 179.5q0 224 -324 224q-42 0 -98 -9l-35 142q8 9 385 377h-372v-160h-209v352h880l35 -154l-389 -383q192 -14 305 -109.5t113 -277.5q0 -113 -43 -202t-118.5 -145t-174.5 -85.5t-213 -29.5q-112 0 -236 22.5 t-219 71.5z" />
<glyph unicode="4" d="M61 387v166l615 813h289v-791h198v-188h-198v-199h137v-188h-541v188h129v199h-629zM315 575h377l-2 474h-10q-55 -74 -188 -244.5t-177 -229.5z" />
<glyph unicode="5" d="M102 76l66 192q206 -63 344 -63q142 0 224.5 61t82.5 183q0 116 -80 176.5t-204 60.5q-102 0 -216 -51l-141 76l51 655h807v-328h-215v138h-366l-25 -324q87 31 184 31q104 0 192 -27t155.5 -79.5t106 -136.5t38.5 -191q0 -113 -43 -203.5t-117.5 -147t-172 -86.5 t-210.5 -30q-289 0 -461 94z" />
<glyph unicode="6" d="M94 614q0 132 20.5 245t66.5 210.5t115 166t171 107.5t229 39q190 0 310 -51l-45 -192q-118 39 -246 39q-73 0 -131.5 -27.5t-94.5 -69t-62 -96.5t-37 -103.5t-15 -97.5l10 -8q159 86 317 86q84 0 158 -25.5t133.5 -76t94 -133.5t34.5 -189q0 -215 -138 -334.5 t-363 -119.5q-115 0 -205.5 31.5t-150 87t-98.5 136t-56 173t-17 202.5zM379 547q0 -51 5 -95.5t21 -94.5t41.5 -85t71 -58.5t105.5 -23.5q107 0 167 66.5t60 177.5q0 236 -217 236q-49 0 -97 -12t-74 -25t-53.5 -29.5t-29.5 -17.5v-39z" />
<glyph unicode="7" d="M164 981v383h907v-178q-56 -121 -247 -539.5t-296 -646.5h-270l533 1176h-410v-195h-217z" />
<glyph unicode="8" d="M84 360q0 107 56.5 214t181.5 180q-89 56 -129.5 118t-40.5 154q0 157 133 261t336 104q66 0 129.5 -12t125 -39t107.5 -67t74 -101t28 -136q0 -180 -184 -319q223 -118 223 -342q0 -170 -144 -280.5t-380 -110.5q-242 0 -379 102t-137 274zM371 385q0 -83 60.5 -137.5 t172.5 -54.5q110 0 174 58.5t64 141.5q0 82 -71 136t-245 124q-155 -106 -155 -268zM422 1022q0 -23 5.5 -42t22 -37t28.5 -29.5t43 -28t46.5 -24.5t58 -27t58.5 -27q77 58 109 107.5t32 101.5q0 67 -52.5 119.5t-156.5 52.5q-65 0 -111 -29.5t-64.5 -66t-18.5 -70.5z" />
<glyph unicode="9" d="M84 924q0 216 139 337t363 121q143 0 247 -48t164 -136t87.5 -199t27.5 -251q0 -131 -21 -243.5t-67 -209t-115.5 -164.5t-171.5 -106.5t-229 -38.5q-190 0 -320 45l43 188q128 -35 261 -35q73 0 131.5 28t94.5 69.5t61.5 97.5t36.5 105t15 98l-10 6q-151 -88 -315 -88 q-88 0 -163 26t-133.5 77t-92 133.5t-33.5 187.5zM354 930q0 -238 219 -238q29 0 57 3.5t51.5 10.5t43 14.5t37.5 17t28.5 15.5t23 14t13.5 9v39q0 354 -243 354q-109 0 -169.5 -65t-60.5 -174z" />
<glyph unicode=":" horiz-adv-x="528" d="M106 135q0 65 47 111.5t111 46.5q66 0 112 -46t46 -112q0 -64 -46.5 -111t-109.5 -47q-65 0 -112.5 47t-47.5 111zM106 743q0 63 47.5 109.5t110.5 46.5q66 0 112 -46.5t46 -109.5q0 -67 -46 -113t-110 -46q-65 0 -112.5 46t-47.5 113z" />
<glyph unicode=";" horiz-adv-x="528" d="M102 -197q103 97 117 207q-110 11 -110 133q0 60 43 103t112 43q79 0 121.5 -52t42.5 -128q0 -109 -71.5 -219.5t-184.5 -176.5zM106 743q0 63 47.5 109.5t110.5 46.5q66 0 112 -46.5t46 -109.5q0 -67 -46 -113t-110 -46q-65 0 -112.5 46t-47.5 113z" />
<glyph unicode="&#x3c;" d="M164 541v139l907 444v-196l-678 -316l678 -319v-195z" />
<glyph unicode="=" d="M176 369v163h868v-163h-868zM176 696v166h868v-166h-868z" />
<glyph unicode="&#x3e;" d="M164 98v195l680 319l-680 316v196l909 -444v-139z" />
<glyph unicode="?" horiz-adv-x="1013" d="M88 1047v329q218 76 426 76q209 0 320.5 -87t111.5 -239q0 -66 -30.5 -129.5t-75.5 -112t-98.5 -100.5t-98.5 -96t-75.5 -97.5t-30.5 -105.5q0 -22 8 -104q-66 -2 -228 -10q-14 85 -14 153q0 72 36 142.5t87 125t102 105.5t87 103.5t36 99.5q0 68 -51 103.5t-139 35.5 q-81 0 -170 -25v-167h-203zM311 115q0 59 44.5 101t105.5 42q63 0 107 -41.5t44 -101.5q0 -57 -43.5 -97.5t-105.5 -40.5q-63 0 -107.5 40.5t-44.5 97.5z" />
<glyph unicode="@" horiz-adv-x="1888" d="M162 684q0 160 63.5 300t172.5 239t259.5 156t319.5 57q343 0 540 -186t197 -498q0 -100 -32 -182t-86.5 -135t-125.5 -82t-151 -29q-49 0 -96 12.5t-88.5 44t-57.5 76.5q-49 -53 -120.5 -84t-141.5 -31q-64 0 -110.5 21.5t-69 56t-32 68.5t-9.5 69q0 55 22.5 95t57 62.5 t91.5 37.5t110.5 22t129.5 15l15 1.5t13.5 1t15.5 1.5v36q0 72 -27.5 100.5t-103.5 28.5q-112 0 -218 -34l-34 127q143 57 299 57q276 0 276 -246v-301q0 -44 29 -71t88 -27q22 0 47.5 9t53.5 30.5t50.5 52t37 79t14.5 107.5q0 253 -157 403t-427 150q-181 0 -333 -79 t-240.5 -218t-88.5 -307q0 -173 79 -312t218.5 -217.5t313.5 -78.5q127 0 272 45q25 -72 47 -123q-133 -61 -319 -61q-174 0 -318.5 56t-241.5 154.5t-150.5 235t-53.5 295.5zM803 582q0 -105 100 -105q73 0 146 64v155q-13 -1 -42.5 -4t-44.5 -4.5t-40 -5.5t-39 -8.5 t-31.5 -13t-26.5 -18.5t-15.5 -25.5t-6.5 -34.5z" />
<glyph unicode="A" horiz-adv-x="1507" d="M41 0v193h113l426 1214h362l412 -1214h112v-193h-538v193h129l-62 196h-501q-5 -16 -18.5 -56t-25 -76t-18.5 -64h133v-193h-524zM557 578h381l-154 489q-5 20 -16 57.5t-14 49.5h-6l-33 -109q-126 -384 -158 -487z" />
<glyph unicode="B" horiz-adv-x="1404" d="M84 0v193h147v1019h-141v195h721q229 0 347 -98t118 -275q0 -33 -7.5 -68.5t-25 -78.5t-55.5 -82.5t-92 -65.5v-2q63 -22 108.5 -61.5t69.5 -87.5t34.5 -95t10.5 -96q0 -179 -126 -288t-321 -109h-788zM526 193h258q115 0 172.5 61.5t57.5 157.5q0 94 -59.5 156.5 t-170.5 62.5h-258v-438zM526 817h232q103 0 161 54t58 143q0 92 -54.5 145t-164.5 53h-232v-395z" />
<glyph unicode="C" horiz-adv-x="1275" d="M102 700q0 75 8.5 145t30 145t55.5 138.5t88 121.5t123 98.5t165.5 64t211.5 23.5q206 0 375 -58v-395h-207v211q-68 18 -161 18q-379 0 -379 -505q0 -256 95 -374t324 -118q64 0 161 11t167 32l45 -205q-86 -33 -208.5 -53t-231.5 -20q-150 0 -265.5 37t-190 100.5 t-121.5 156.5t-66 196.5t-19 229.5z" />
<glyph unicode="D" horiz-adv-x="1492" d="M88 0v195h148v1015h-140v199h668q145 0 255.5 -37.5t180 -100t113.5 -154t61 -190.5t17 -218q0 -118 -19.5 -219.5t-66 -193.5t-118.5 -156t-183 -102t-252 -38h-664zM532 195h189q41 0 79.5 9t80.5 29t76.5 58.5t63 92t44.5 134t16 180.5q0 122 -21.5 215t-56 148 t-83 89.5t-96 47t-101.5 12.5h-191v-1015z" />
<glyph unicode="E" horiz-adv-x="1329" d="M88 0v197h141v1015h-139v195h1147v-414h-207v219h-506v-393l471 12v-202l-471 12v-444h531v229h209v-426h-1176z" />
<glyph unicode="F" horiz-adv-x="1296" d="M88 0v195h143v1017h-141v195h1151v-414h-211v219h-506v-393l471 15v-205l-471 12v-446h193v-195h-629z" />
<glyph unicode="G" horiz-adv-x="1411" d="M102 700q0 74 8.5 143.5t30.5 144.5t56.5 139t90 122t127 98.5t172 64.5t220.5 24q224 0 393 -58v-387h-207v201q-78 20 -174 20q-209 0 -308 -133t-99 -372q0 -121 18.5 -209.5t60.5 -154.5t113.5 -99t173.5 -33q112 0 195 22v332h-182v183h548v-183h-100v-510 q-221 -75 -475 -75q-662 0 -662 720z" />
<glyph unicode="H" horiz-adv-x="1609" d="M86 0v195h143v1017h-143v195h565v-195h-129v-389h563v389h-127v195h564v-195h-142v-1017h142v-195h-564v195h127v444h-563v-444h129v-195h-565z" />
<glyph unicode="I" horiz-adv-x="858" d="M143 0v195h140v1017h-140v197h572v-197h-140v-1017h140v-195h-572z" />
<glyph unicode="J" horiz-adv-x="897" d="M-39 -172q97 44 162 85.5t106.5 83t63.5 95t29.5 108.5t7.5 136v876h-185v197h639v-197h-161v-884q0 -286 -149 -457.5t-443 -241.5z" />
<glyph unicode="K" horiz-adv-x="1478" d="M88 0v193h141v1024h-141v190h559v-190h-133v-429l461 429h-121v190h545v-190h-123l-397 -361l446 -661h117v-195h-568l-2 195h121l-325 487l-154 -141v-348h127v-193h-553z" />
<glyph unicode="L" horiz-adv-x="1288" d="M88 0v195h143v1017h-141v195h584v-195h-148v-1017h529v256h211v-451h-1178z" />
<glyph unicode="M" horiz-adv-x="1972" d="M70 0v193h141v1019h-141v195h518q53 -115 131 -295q53 -116 172 -391q29 -60 92 -215h10q16 33 42 96.5t38 89.5q126 295 191 443q26 61 65.5 154.5t50.5 117.5h514v-195h-129v-1019h129v-193h-540v193h121v827h-5q-10 -22 -94 -223q-37 -91 -136 -312t-122 -280h-258 q-117 248 -299 657q-9 23 -32.5 76.5t-34.5 81.5h-7q0 -138 -1 -414t-1 -413h131v-193h-546z" />
<glyph unicode="N" horiz-adv-x="1667" d="M82 0v193h141q0 170 1 509t1 510h-141v195h455q77 -123 238.5 -377t260.5 -416q73 -112 119 -190h10v788h-139v195h549v-195h-135v-1212h-287q-63 97 -255 391.5t-294 456.5q-99 161 -106 172q-1 0 -2 -1t-2 -1v-825h139v-193h-553z" />
<glyph unicode="O" horiz-adv-x="1515" d="M102 700q0 155 38.5 285.5t116.5 232t207.5 159t299.5 57.5q138 0 248 -38t184 -104t123.5 -159t71.5 -199.5t22 -228.5q0 -157 -41.5 -288.5t-121 -229t-204 -152.5t-282.5 -55q-170 0 -297.5 51.5t-207 147.5t-118.5 226.5t-39 294.5zM412 698q0 -252 83.5 -380 t268.5 -128q88 0 154 38t105.5 107.5t59 160.5t19.5 204q0 85 -8 155.5t-31 141t-59.5 118.5t-97.5 78t-142 30q-352 0 -352 -525z" />
<glyph unicode="P" horiz-adv-x="1296" d="M88 0v195h137v1017h-137v197h670q235 0 358 -113.5t123 -314.5q0 -63 -15.5 -123.5t-50.5 -117.5t-86.5 -100t-129.5 -69t-173 -26h-266v-350h182v-195h-612zM518 735h193q99 0 160 58t61 178q0 241 -230 241h-184v-477z" />
<glyph unicode="Q" horiz-adv-x="1521" d="M102 698q0 123 23 231t74.5 201.5t127 160.5t186 105t247.5 38q138 0 248 -38.5t184 -105t123.5 -160t71.5 -200.5t22 -230q0 -217 -76.5 -382t-224.5 -250q119 -31 315 -78l-86 -223l-579 194q-79 12 -185 39q-471 110 -471 698zM408 696q0 -252 83.5 -379t268.5 -127 q116 0 194 66.5t112 178t34 263.5q0 85 -8 155.5t-30.5 141t-59.5 118.5t-98.5 78t-143.5 30q-352 0 -352 -525z" />
<glyph unicode="R" horiz-adv-x="1409" d="M92 0v197h133v1015h-133v197h696q234 0 351.5 -110t117.5 -302q0 -51 -13 -103t-39.5 -103.5t-75.5 -93.5t-113 -64l205 -445l157 -20v-160q-45 -17 -111.5 -26t-113.5 -9q-83 0 -127.5 35.5t-79.5 114.5l-203 461h-227v-387h150v-197h-574zM516 772h205q45 0 82.5 10.5 t71.5 34.5t53.5 70.5t19.5 111.5q0 109 -61.5 161t-159.5 52h-211v-440z" />
<glyph unicode="S" horiz-adv-x="1257" d="M84 408h207q0 -26 1 -78t1 -78q119 -53 280 -53q146 0 212.5 55t66.5 135q0 38 -15.5 68.5t-38.5 50.5t-66 38.5t-80 30t-99 27.5q-87 22 -151 44.5t-125.5 56t-100 73.5t-61.5 96.5t-23 126.5q0 200 146.5 313t386.5 113q273 0 444 -90q0 -53 1 -158.5t1 -158.5h-209 q0 26 -1 80t-1 80q-80 34 -225 34q-119 0 -178.5 -49.5t-59.5 -132.5q0 -79 69.5 -120.5t233.5 -84.5q62 -16 102 -28t95.5 -33t90.5 -41.5t74.5 -52.5t61.5 -69t37 -87t15 -110q0 -213 -154.5 -319.5t-429.5 -106.5q-302 0 -506 98q0 54 -1 164t-1 166z" />
<glyph unicode="T" horiz-adv-x="1290" d="M33 983v426h1227v-426h-207v229h-260v-1017h165v-195h-624v195h168v1017h-264l2 -229h-207z" />
<glyph unicode="U" horiz-adv-x="1550" d="M68 1212v197h538v-197h-133v-700q0 -317 303 -317q142 0 220.5 77.5t78.5 239.5v700h-129v197h537v-197h-123v-694q0 -257 -145.5 -396.5t-440.5 -139.5q-307 0 -447.5 137.5t-140.5 398.5v694h-118z" />
<glyph unicode="V" horiz-adv-x="1464" d="M20 1210v197h543v-197h-121q35 -119 236 -757q12 -39 34 -115t25 -86h8q58 197 60 205q39 121 114.5 373.5t116.5 379.5h-123v197h529v-197h-117q-46 -134 -189 -558t-221 -652h-362q-64 183 -203.5 589.5t-214.5 620.5h-115z" />
<glyph unicode="W" horiz-adv-x="2134" d="M23 1210v199h555v-199h-125l155 -635l72 -309h6l84 307l162 557l-27 80h-129l-2 199h561l2 -199h-137l199 -641l84 -274h6l65 297l144 618h-127v199h547v-199h-123q-26 -103 -162 -599t-164 -611h-362l-177 586l-61 200h-4l-61 -206l-177 -580h-360l-328 1210h-116z" />
<glyph unicode="X" horiz-adv-x="1445" d="M57 0v197h123l355 530l-320 483h-154v199h601v-199h-111l207 -323l217 323h-119v199h516v-199h-123l-352 -493l352 -520h140l2 -197h-605v197h117l-225 354l-227 -354h120v-197h-514z" />
<glyph unicode="Y" horiz-adv-x="1363" d="M27 1210v199h526v-199h-117l244 -452h8l248 452h-119v199h522v-199h-112l-396 -653v-362h160v-195h-629v195h160v358l-387 657h-108z" />
<glyph unicode="Z" horiz-adv-x="1245" d="M51 0v193l737 1019h-479v-227h-209v424h1057v-188l-741 -1024h571v260h211v-457h-1147z" />
<glyph unicode="[" horiz-adv-x="636" d="M129 -328v1760h436v-162h-194v-1442h194v-156h-436z" />
<glyph unicode="\" horiz-adv-x="757" d="M16 1446h199l530 -1514h-198z" />
<glyph unicode="]" horiz-adv-x="636" d="M78 -172h196v1442h-196v162h438v-1760h-438v156z" />
<glyph unicode="^" horiz-adv-x="993" d="M39 729l381 662h137l381 -662h-193l-260 459l-254 -459h-192z" />
<glyph unicode="_" horiz-adv-x="1024" d="M0 -154h1024v-143h-1024v143z" />
<glyph unicode="`" horiz-adv-x="1060" d="M309 1376l148 158l303 -346l-94 -98z" />
<glyph unicode="a" horiz-adv-x="1157" d="M66 270q0 122 92.5 205.5t259.5 93.5l280 19v49q0 93 -40 136.5t-144 43.5q-159 0 -307 -51q-34 121 -47 176q86 38 201 59t223 21q188 0 285.5 -80t97.5 -266v-486h153l15 -153q-121 -53 -267 -53q-36 0 -61.5 5t-47.5 18.5t-33.5 39.5t-12.5 66q-1 0 -2 1t-2 1 q-141 -135 -336 -135q-71 0 -126.5 19t-89 49t-54.5 70t-29 77t-8 75zM360 303q0 -71 34 -105t108 -34q45 0 97.5 23.5t94.5 62.5v205l-188 -19q-71 -7 -108.5 -43.5t-37.5 -89.5z" />
<glyph unicode="b" horiz-adv-x="1239" d="M16 1276v190h428v-520q153 84 289 84q94 0 165.5 -26t118 -71.5t76.5 -113t42 -145t12 -172.5q0 -520 -488 -520q-107 0 -245.5 25t-253.5 79v1190h-144zM446 223q97 -39 197 -39q51 0 88 14t67.5 48t46 97t15.5 155q0 99 -15 165t-44 98t-61 44t-76 12q-101 0 -218 -67 v-527z" />
<glyph unicode="c" horiz-adv-x="1011" d="M82 492q0 77 12 146t46.5 142t88.5 125.5t146.5 86.5t212.5 34q183 0 317 -51v-303h-192v135q-58 10 -97 10q-247 0 -247 -317q0 -163 63.5 -237.5t185.5 -74.5q138 0 279 52l53 -181q-69 -35 -171.5 -56t-205.5 -21q-114 0 -200.5 26.5t-141 72t-88.5 112t-47.5 139 t-13.5 160.5z" />
<glyph unicode="d" horiz-adv-x="1249" d="M82 481q0 122 23 218.5t72.5 172.5t134 117t200.5 41q154 0 272 -59v305h-151v190h436v-1278h141v-188h-409v86l-4 2q-63 -50 -150 -78t-158 -28q-113 0 -194 38.5t-126.5 109t-66 157t-20.5 194.5zM369 485q0 -89 15 -149t44.5 -91.5t63.5 -44t81 -12.5q51 0 111.5 23.5 t99.5 54.5v498q-37 23 -95.5 40t-110.5 17q-43 0 -77 -13.5t-65.5 -48t-49 -104t-17.5 -170.5z" />
<glyph unicode="e" horiz-adv-x="1089" d="M82 500q0 59 9.5 116.5t30.5 118.5t59 112.5t90 92.5t129 64.5t171 23.5q441 0 441 -489v-103h-643v-9q0 -123 55 -181q57 -60 194 -60q148 0 310 64l61 -172q-183 -98 -416 -98q-491 0 -491 520zM373 610h377q-4 219 -179 219q-94 0 -143.5 -63.5t-54.5 -155.5z" />
<glyph unicode="f" horiz-adv-x="866" d="M61 815v156l146 41v131q0 342 377 342q155 0 274 -35l-39 -195q-97 17 -168 17q-83 0 -125.5 -32.5t-42.5 -106.5v-129h291v-189h-291v-627h162v-188h-573v188h133v627h-144z" />
<glyph unicode="g" horiz-adv-x="1179" d="M63 -178q0 79 38 141.5t94 93.5q-56 13 -86.5 54t-30.5 100q0 129 170 182q-63 28 -103.5 95t-40.5 167q0 77 26 140.5t69.5 106t103.5 71.5t125.5 42t136.5 13q117 0 211 -24h357v-140h-146l-8 -6q27 -34 43 -88.5t16 -103.5q0 -165 -129.5 -257.5t-330.5 -95.5h-117 q-65 0 -96 -14.5t-31 -50.5q0 -55 82 -55h286q194 0 302 -73t108 -222q0 -71 -32.5 -131t-99.5 -109t-182 -76.5t-268 -27.5q-106 0 -188.5 14.5t-134 39.5t-85 60t-46.5 72.5t-13 81.5zM344 -111q0 -137 227 -137q115 0 180.5 38t65.5 101q0 55 -42.5 92t-131.5 37h-209 q-36 -14 -63 -53t-27 -78zM391 666q0 -77 43.5 -120.5t122.5 -43.5q87 0 141 43t54 123q0 41 -16 77.5t-59.5 64.5t-107.5 28q-85 0 -131.5 -47.5t-46.5 -124.5z" />
<glyph unicode="h" horiz-adv-x="1310" d="M41 1276v188h420v-551q172 115 336 115q323 0 323 -346v-487h144v-168q-101 -43 -228 -43q-200 0 -200 202v441q0 98 -32 138t-116 40q-50 0 -112 -23t-115 -57v-725h-285v1276h-135z" />
<glyph unicode="i" horiz-adv-x="706" d="M102 813v191h387v-807h146v-170q-47 -21 -112 -33t-115 -12q-109 0 -155 44t-48 144v643h-103zM172 1303q0 71 49 120.5t119 49.5q69 0 119.5 -50t50.5 -120q0 -69 -50.5 -119.5t-119.5 -50.5q-70 0 -119 50t-49 120z" />
<glyph unicode="j" horiz-adv-x="671" d="M-49 -301q85 50 134 90.5t76.5 90t35.5 99t8 130.5v704h-125v191h412v-885q0 -253 -104.5 -387.5t-358.5 -208.5zM172 1303q0 71 50 120.5t120 49.5q68 0 119 -50t51 -120q0 -69 -51 -119.5t-119 -50.5q-70 0 -120 50.5t-50 119.5z" />
<glyph unicode="k" horiz-adv-x="1218" d="M45 1274v186h428v-839l240 196h-99v187h521v-189h-129l-226 -190l262 -439q22 -3 68.5 -11t69.5 -11v-156q-98 -31 -195 -31q-64 0 -101.5 14t-66.5 66l-239 418l-105 -88v-201h113v-186h-531v186h133v1088h-143z" />
<glyph unicode="l" horiz-adv-x="714" d="M78 1270v190h430v-1272h135v-188h-555v188h133v1082h-143z" />
<glyph unicode="m" horiz-adv-x="1923" d="M45 813v191h418v-91l8 -6q79 56 170 86.5t168 30.5q92 0 152.5 -32t97.5 -101q73 60 172.5 97.5t181.5 37.5q96 0 161.5 -27.5t99 -79t46.5 -109.5t13 -134v-481h135v-168q-104 -43 -221 -43q-56 0 -93 11t-58 28t-32 52t-13.5 67.5t-2.5 90.5v398q0 93 -29.5 129.5 t-109.5 36.5q-49 0 -112 -20t-105 -50q8 -41 8 -119v-608h-283v649q0 146 -129 146q-108 0 -217 -74v-721h-287v813h-139z" />
<glyph unicode="n" horiz-adv-x="1320" d="M47 815v189h418v-89q2 0 5 -1t5 -1q173 115 330 115q321 0 321 -346v-487h144v-168q-101 -43 -228 -43q-200 0 -200 215v428q0 98 -32 138t-116 40q-50 0 -112.5 -23t-112.5 -57v-725h-287v815h-135z" />
<glyph unicode="o" horiz-adv-x="1175" d="M82 500q0 109 30.5 202t90.5 166.5t160 115.5t229 42q106 0 191 -27.5t142.5 -75.5t96 -115t55.5 -143t17 -163q0 -86 -17.5 -161.5t-57 -142t-98 -114t-146 -75t-195.5 -27.5q-130 0 -227.5 40t-155.5 112t-86.5 163.5t-28.5 202.5zM375 500q0 -71 8.5 -123.5t31 -99 t66.5 -71t109 -24.5q211 0 211 318q0 321 -205 321q-63 0 -108 -27t-69 -74.5t-34 -101t-10 -118.5z" />
<glyph unicode="p" horiz-adv-x="1243" d="M41 -242h139v1055h-139v191h408v-91l4 -2q61 51 148.5 80t158.5 29q91 0 162 -26t117 -70.5t75.5 -109t42 -136t12.5 -156.5q0 -121 -23.5 -217t-73 -170.5t-134.5 -114.5t-201 -40q-147 0 -272 61v-283h149v-190h-573v190zM465 250q39 -25 97.5 -42.5t111.5 -17.5 q207 0 207 328q0 88 -15 147t-44.5 89t-63.5 41.5t-80 11.5q-52 0 -113 -23.5t-100 -54.5v-479z" />
<glyph unicode="q" horiz-adv-x="1230" d="M94 477q1 91 16 168t51.5 148.5t93.5 121.5t147 79.5t206 29.5q104 0 233 -23t238 -73v-1170h144v-190h-580v190h154v301q-153 -84 -289 -84q-112 0 -193.5 36t-129.5 104t-71 158q-20 83 -20 186v18zM381 502v-23q0 -81 13 -137q14 -64 44 -95t62.5 -42.5t77.5 -11.5 q104 0 217 63v524q-85 33 -183 33q-231 0 -231 -311z" />
<glyph unicode="r" horiz-adv-x="937" d="M70 0v188h131v627h-125v191h405v-148l8 -2q80 67 182 119.5t191 52.5q37 0 52.5 -20t15.5 -66q0 -56 -22 -124t-62 -109l-361 20v-541h140v-188h-555z" />
<glyph unicode="s" horiz-adv-x="1021" d="M66 324h196l4 -119q33 -16 90 -25.5t105 -9.5q82 0 137 26.5t55 77.5q0 30 -13 52.5t-40 38t-51.5 24.5t-63.5 19q-171 48 -230 73q-147 65 -173 176q-6 27 -6 56q0 157 114 235t318 78q215 0 362 -78q0 -168 2 -254h-198l-2 115q-64 25 -146 25q-71 0 -115 -27.5 t-44 -77.5q0 -29 29 -51.5t52 -30.5t74 -21q2 -1 3.5 -1.5l3 -1t3.5 -0.5q12 -3 38 -10q37 -10 56.5 -15t56 -17t58 -21.5t53 -26t50 -33t40.5 -41t34 -51t20 -61t8 -73.5q0 -146 -120.5 -219t-346.5 -73q-252 0 -411 79q0 179 -2 263z" />
<glyph unicode="t" horiz-adv-x="862" d="M33 815v158l160 47l71 244l195 18v-276h291v-191h-293v-453q0 -89 27 -124t110 -35q68 0 176 24l37 -186q-132 -57 -287 -57q-103 0 -173.5 23t-107 66.5t-51 93t-14.5 114.5v534h-141z" />
<glyph unicode="u" horiz-adv-x="1300" d="M49 813v191h422v-642q0 -85 25.5 -122t105.5 -37q47 0 108.5 23.5t112.5 72.5v514h-116v191h403v-809h135v-168q-122 -43 -227 -43q-90 0 -131.5 31t-50.5 104q-154 -142 -340 -142q-312 0 -312 326v510h-135z" />
<glyph unicode="v" horiz-adv-x="1226" d="M39 797v209h319l148 -445q7 -22 50.5 -156t59.5 -184h9q9 32 48 147.5t50 157.5q41 115 96 287h-80v193h447v-193h-90q-32 -96 -155 -412t-153 -401h-350q-28 82 -146 391t-149 406h-104z" />
<glyph unicode="w" horiz-adv-x="1837" d="M25 797v209h317l145 -514l80 -291h13l79 256l105 315l-16 41h-144v193h551v-193h-102l135 -362l94 -248h8l72 260l102 352h-110v191h458v-191l-90 -2l-249 -813h-369l-103 264l-88 236h-10l-80 -236l-84 -264h-368l-240 797h-106z" />
<glyph unicode="x" horiz-adv-x="1202" d="M49 0l2 182h78l297 355l-211 288h-149l2 185h346l227 -318l109 135h-95v183h465v-183h-102l-273 -313l246 -332h142v-182h-537v182h72l-125 170l-142 -170h70v-182h-422z" />
<glyph unicode="y" d="M43 801v203h317q175 -560 244 -797h8q117 374 195 606h-111v191h480v-191h-97l-370 -1040q-39 -109 -106.5 -161t-196.5 -52q-140 0 -267 41l39 204q103 -18 154 -18q64 0 94.5 18.5t46.5 59.5l62 158h-129q-45 132 -127 392t-125 386h-111z" />
<glyph unicode="z" horiz-adv-x="1048" d="M61 0v164l551 659h-325v-157h-193v340h869v-160l-553 -668h381v172h192v-350h-922z" />
<glyph unicode="{" horiz-adv-x="665" d="M61 510v149q146 26 146 199v279q0 303 235 303h181v-160h-56q-114 0 -114 -135v-314q0 -98 -32.5 -159.5t-111.5 -79.5v-4q85 -33 114.5 -97.5t29.5 -181.5v-358q0 -63 23 -99t87 -36h60v-156h-172q-244 0 -244 291v368q0 84 -36.5 134.5t-109.5 56.5z" />
<glyph unicode="|" horiz-adv-x="636" d="M219 -299v1747h193v-1747h-193z" />
<glyph unicode="}" horiz-adv-x="665" d="M47 -184h59q65 0 88 36t23 99v358q0 117 29 181.5t114 97.5v4q-79 18 -111 79t-32 160v314q0 135 -115 135h-55v160h180q236 0 236 -303v-279q0 -173 145 -199v-149q-73 -6 -109 -56t-36 -135v-368q0 -291 -244 -291h-172v156z" />
<glyph unicode="~" d="M141 549q84 217 265 217q74 0 238 -46t226 -46l140 98l96 -76q-84 -223 -260 -223q-73 0 -164 23.5t-171 47t-126 23.5l-143 -96z" />
<glyph unicode="&#xa2;" d="M176 492q0 71 10.5 135.5t39 133.5t74.5 121.5t123 90.5t177 49v186h115v-182q164 -7 284 -51v-303h-192v135q-55 10 -92 10v-629q135 0 276 52l53 -181q-124 -65 -329 -75v-158h-115v160q-98 7 -172.5 37.5t-121.5 75.5t-76.5 109t-41.5 132.5t-12 151.5zM463 500 q0 -233 137 -291v586q-137 -60 -137 -295z" />
<glyph unicode="&#xa3;" d="M113 0l2 186q78 48 109 129t38 193l6 110h-127v146h138l12 190q14 208 124 324.5t324 116.5q196 0 371 -76v-311h-203v153q-90 23 -153 23q-106 0 -151.5 -60.5t-53.5 -185.5l-10 -174h321v-146h-332l-8 -122q-11 -226 -100 -310h678v-186h-985z" />
<glyph unicode="&#xa5;" d="M31 1174v192h483v-192h-113q59 -134 207 -455h8q154 345 205 455h-116v192h477v-192h-97q-19 -38 -101 -200.5t-126 -252.5h225v-103h-950v103h219q-41 85 -116.5 237.5t-106.5 215.5h-98zM133 420v106h950v-106h-342v-232h154v-188h-584v188h154v230l-2 2h-330z" />
<glyph unicode="&#xa8;" horiz-adv-x="929" d="M145 1243q0 50 35 84.5t82 34.5q54 0 88.5 -33.5t34.5 -85.5q0 -50 -34.5 -83.5t-86.5 -33.5q-51 0 -85 33.5t-34 83.5zM555 1243q0 50 34.5 84.5t82.5 34.5q54 0 89.5 -33.5t35.5 -85.5q0 -50 -35.5 -83.5t-89.5 -33.5q-50 0 -83.5 34t-33.5 83z" />
<glyph unicode="&#xa9;" horiz-adv-x="1757" d="M96 676q0 209 105 387.5t285 282.5t391 104q210 0 389 -104t284 -282.5t105 -387.5t-105 -387.5t-284 -282.5t-389 -104q-211 0 -391 104t-285 282.5t-105 387.5zM219 676q0 -176 89 -326t240.5 -237.5t328.5 -87.5q179 0 330 87.5t238 237.5t87 326q0 177 -87 327.5 t-238 238t-330 87.5q-177 0 -328.5 -87.5t-240.5 -238t-89 -327.5zM436 659q0 73 12.5 140.5t46 137t86 120t138.5 82.5t196 32q138 0 259 -41v-266h-140v140q-56 12 -112 12q-139 0 -208 -91.5t-69 -258.5q0 -174 70 -258t225 -84q42 0 111 8t116 20l29 -139 q-57 -23 -142 -36t-161 -13q-457 0 -457 495z" />
<glyph unicode="&#xab;" horiz-adv-x="1009" d="M100 365v77l340 367l115 -82l-213 -324l211 -319l-117 -86zM477 365v77l342 367l115 -82l-213 -324l211 -319l-115 -86z" />
<glyph unicode="&#xad;" horiz-adv-x="802" d="M121 449v202h561v-202h-561z" />
<glyph unicode="&#xae;" horiz-adv-x="1245" d="M90 954q0 108 40 204.5t110 166.5t168.5 111t209.5 41q223 0 374 -152t151 -371q0 -143 -68.5 -262.5t-189.5 -189.5t-267 -70q-147 0 -268.5 70t-190.5 189.5t-69 262.5zM186 954q0 -180 123 -305t309 -125q190 0 310.5 124.5t120.5 305.5q0 179 -123.5 304.5 t-307.5 125.5t-308 -125.5t-124 -304.5zM367 670v88h57v416h-57v90h295q100 0 150 -47.5t50 -129.5q0 -43 -26 -87t-76 -66l86 -176l67 -8v-78q-47 -13 -100 -13q-35 0 -55 16.5t-33 49.5l-88 186h-82v-153h59v-88h-247zM555 999h80q92 0 92 91q0 43 -25 64.5t-65 21.5h-82 v-177z" />
<glyph unicode="&#xb4;" horiz-adv-x="1069" d="M389 1188l301 346l150 -158l-357 -286z" />
<glyph unicode="&#xb8;" horiz-adv-x="976" d="M352 -418q234 22 234 113q0 24 -15.5 39.5t-46 22.5t-60 9.5t-71.5 2.5q-30 45 -33 49q20 25 92 120.5t113 145.5q14 -10 41.5 -25.5t36.5 -21.5q-12 -16 -54.5 -71t-64.5 -85q104 -6 162.5 -51t58.5 -125q0 -93 -99.5 -156.5t-291.5 -64.5q0 16 -1 49t-1 49z" />
<glyph unicode="&#xbb;" horiz-adv-x="1009" d="M88 727l117 82l338 -367v-77l-336 -367l-117 86l211 319zM469 727l117 82l338 -367v-77l-338 -367l-115 86l209 319z" />
<glyph unicode="&#x2c6;" horiz-adv-x="1138" d="M164 1167l315 308h178l320 -306l-72 -84l-338 205l-334 -205z" />
<glyph unicode="&#x2da;" horiz-adv-x="1142" d="M330 1368q0 98 74 171t180 73q105 0 175 -72t70 -172q0 -104 -71 -175t-174 -71q-107 0 -180.5 72t-73.5 174zM467 1362q0 -44 33 -77.5t84 -33.5q46 0 77 33.5t31 77.5q0 48 -30 82.5t-78 34.5q-49 0 -83 -35t-34 -82z" />
<glyph unicode="&#x2dc;" horiz-adv-x="1138" d="M199 1217q68 186 211 186q60 0 182.5 -38t169.5 -38l112 82l82 -63q-31 -93 -83 -143t-121 -50q-75 0 -197.5 40t-157.5 40l-114 -80z" />
<glyph unicode="&#x401;" horiz-adv-x="1329" d="M88 0v197h141v1015h-139v195h1147v-414h-207v219h-506v-393l471 12v-202l-471 12v-444h531v229h209v-426h-1176zM371 1608q0 49 34 83.5t82 34.5q53 0 88 -33.5t35 -84.5t-35 -85t-86 -34t-84.5 34t-33.5 85zM780 1608q0 50 34 84t83 34q53 0 88 -33.5t35 -84.5t-35 -85 t-88 -34q-50 0 -83.5 34t-33.5 85z" />
<glyph unicode="&#x402;" horiz-adv-x="1728" d="M47 1049v358h1356v-358h-207v168h-393v-414q175 67 366 67q217 0 346.5 -113.5t129.5 -324.5q0 -94 -25.5 -183.5t-67 -161.5t-98 -137.5t-114.5 -113.5t-121 -86l-121 152q239 198 239 481q0 279 -258 279q-131 0 -276 -54v-415h158v-193h-596v193h147v1024h-258v-168 h-207z" />
<glyph unicode="&#x403;" horiz-adv-x="1267" d="M88 0v193h143v1024h-141v190h1145v-406h-207v216h-504v-1024h193v-193h-629zM561 1608l303 346l150 -160l-357 -285z" />
<glyph unicode="&#x404;" horiz-adv-x="1286" d="M102 698q0 75 8.5 145t29.5 145t54.5 138.5t87 121.5t122.5 98t165.5 64t212.5 24q195 0 383 -56v-372h-211v186q-75 20 -166 20q-174 0 -270 -107t-104 -286q222 3 501 10v-196q-474 6 -503 6q5 -208 102 -317t313 -109q56 0 158 12.5t178 30.5l45 -205 q-82 -32 -206.5 -49.5t-239.5 -17.5q-150 0 -265.5 36.5t-189.5 99t-120.5 154.5t-65.5 195t-19 229z" />
<glyph unicode="&#x405;" horiz-adv-x="1257" d="M84 408h207q0 -26 1 -78t1 -78q119 -53 280 -53q146 0 212.5 55t66.5 135q0 38 -15.5 68.5t-38.5 50.5t-66 38.5t-80 30t-99 27.5q-87 22 -151 44.5t-125.5 56t-100 73.5t-61.5 96.5t-23 126.5q0 200 146.5 313t386.5 113q273 0 444 -90q0 -53 1 -158.5t1 -158.5h-209 q0 26 -1 80t-1 80q-80 34 -225 34q-119 0 -178.5 -49.5t-59.5 -132.5q0 -79 69.5 -120.5t233.5 -84.5q62 -16 102 -28t95.5 -33t90.5 -41.5t74.5 -52.5t61.5 -69t37 -87t15 -110q0 -213 -154.5 -319.5t-429.5 -106.5q-302 0 -506 98q0 54 -1 164t-1 166z" />
<glyph unicode="&#x406;" horiz-adv-x="858" d="M143 0v195h140v1017h-140v197h572v-197h-140v-1017h140v-195h-572z" />
<glyph unicode="&#x407;" horiz-adv-x="858" d="M102 1608q0 49 34.5 83.5t82.5 34.5q53 0 88 -33.5t35 -84.5t-35 -85t-86 -34t-85 34t-34 85zM143 0v195h140v1017h-140v197h572v-197h-140v-1017h140v-195h-572zM512 1608q0 50 34 84t83 34q53 0 88 -33.5t35 -84.5t-35 -85t-88 -34q-50 0 -83.5 34t-33.5 85z" />
<glyph unicode="&#x408;" horiz-adv-x="897" d="M-39 -172q97 44 162 85.5t106.5 83t63.5 95t29.5 108.5t7.5 136v876h-185v197h639v-197h-161v-884q0 -286 -149 -457.5t-443 -241.5z" />
<glyph unicode="&#x409;" horiz-adv-x="2129" d="M31 172q76 28 131.5 66.5t94 95.5t62.5 121.5t37.5 160t18 194.5t4.5 241v166h-182v192h1204v-192h-150v-361h289q147 0 260 -47t180.5 -145.5t67.5 -237.5q0 -211 -126 -318.5t-339 -107.5h-758v193h133v1024h-311v-113q0 -108 -2.5 -193.5t-10 -178.5t-20.5 -166.5 t-34 -148.5t-50.5 -132.5t-70.5 -111.5t-92.5 -93t-119 -69t-147.5 -46zM1251 193h262q101 0 164.5 62t63.5 175t-69 174.5t-171 61.5h-250v-473z" />
<glyph unicode="&#x40a;" horiz-adv-x="2201" d="M92 0v193h144v1024h-144v190h561v-190h-125v-375h502v375h-133v192h576v-192h-148v-371h287q148 0 261 -45.5t180 -142t67 -234.5q0 -205 -126 -314.5t-337 -109.5h-756v193h129v466h-502v-466h125v-193h-561zM1325 193h262q101 0 163 60t62 173q0 114 -67.5 172.5 t-171.5 58.5h-248v-464z" />
<glyph unicode="&#x40b;" horiz-adv-x="1837" d="M51 1049v358h1348v-358h-207v168h-383v-408q192 63 369 63q95 0 173.5 -19.5t140.5 -60t97 -110t35 -162.5v-327h135v-193h-557v193h129v286q0 191 -233 191q-145 0 -289 -64v-413h139v-193h-581v193h151v1024h-260v-168h-207z" />
<glyph unicode="&#x40c;" horiz-adv-x="1476" d="M88 0v193h139v1024h-139v190h567v-190h-135v-1024h135v-193h-567zM584 680v90l381 543q40 64 85 89t109 23q116 0 219 -53l-16 -162l-178 -16l-334 -446l391 -543l191 -19v-163q-48 -19 -110.5 -30t-104.5 -11q-78 -3 -128.5 19t-89.5 79zM666 1612l303 346l149 -160 l-356 -285z" />
<glyph unicode="&#x40e;" horiz-adv-x="1366" d="M25 1214v195h514v-195h-121l160 -378l114 -295h10l111 299l145 374h-127v195h506v-195h-104l-418 -1015q-50 -121 -122.5 -173.5t-182.5 -52.5q-141 0 -283 43l45 189q109 -23 166 -23q44 0 74 23.5t53 77.5l33 82h-80l-389 849h-104zM309 1772l119 92q63 -86 134 -133.5 t130 -47.5q26 0 47 4t60 18t90.5 51t111.5 95l80 -77q-90 -139 -194 -202t-203 -63q-200 0 -375 263z" />
<glyph unicode="&#x40f;" horiz-adv-x="1609" d="M86 0v190h143v1024h-143v193h565v-193h-129v-1024h563v1024h-127v193h564v-193h-142v-1024h142v-190h-602v-389h-226v389h-608z" />
<glyph unicode="&#x410;" horiz-adv-x="1507" d="M41 0v193h113l426 1214h362l412 -1214h112v-193h-538v193h129l-62 196h-501q-5 -16 -18.5 -56t-25 -76t-18.5 -64h133v-193h-524zM557 578h381l-154 489q-5 20 -16 57.5t-14 49.5h-6l-33 -109q-126 -384 -158 -487z" />
<glyph unicode="&#x411;" horiz-adv-x="1396" d="M88 0v193h139v1024h-139v190h1090v-348h-207v158h-451v-361h289q231 0 368.5 -106t137.5 -312q0 -211 -125.5 -324.5t-337.5 -113.5h-764zM520 193h268q97 0 160.5 66.5t63.5 176.5q0 114 -66 172t-174 58h-252v-473z" />
<glyph unicode="&#x412;" horiz-adv-x="1404" d="M84 0v193h147v1019h-141v195h721q229 0 347 -98t118 -275q0 -33 -7.5 -68.5t-25 -78.5t-55.5 -82.5t-92 -65.5v-2q63 -22 108.5 -61.5t69.5 -87.5t34.5 -95t10.5 -96q0 -179 -126 -288t-321 -109h-788zM526 193h258q115 0 172.5 61.5t57.5 157.5q0 94 -59.5 156.5 t-170.5 62.5h-258v-438zM526 817h232q103 0 161 54t58 143q0 92 -54.5 145t-164.5 53h-232v-395z" />
<glyph unicode="&#x413;" horiz-adv-x="1267" d="M88 0v193h143v1024h-141v190h1145v-406h-207v216h-504v-1024h193v-193h-629z" />
<glyph unicode="&#x414;" horiz-adv-x="1585" d="M41 186l119 7q144 140 197 368t53 565v91h-156v190h1221v-190h-142v-1024l146 -7v-548h-217v362h-1002v-362h-219v548zM463 193h577v1024h-374v-109q0 -338 -45.5 -558t-157.5 -357z" />
<glyph unicode="&#x415;" horiz-adv-x="1329" d="M88 0v197h141v1015h-139v195h1147v-414h-207v219h-506v-393l471 12v-202l-471 12v-444h531v229h209v-426h-1176z" />
<glyph unicode="&#x416;" horiz-adv-x="2127" d="M49 23v163l191 19l354 543l-340 446l-178 16l-17 162q103 53 220 53q64 2 109 -23t85 -89l387 -543v-90l-379 -600q-39 -57 -89 -79t-128 -19q-42 0 -104.5 11t-110.5 30zM786 0v190h136v1024h-136v191h557v-191h-135v-1024h135v-190h-557zM1268 680v90l381 543 q40 64 85 89t109 23q116 0 219 -53l-16 -162l-178 -16l-334 -446l362 -543l191 -19v-163q-48 -19 -110.5 -30t-104.5 -11q-78 -3 -128 19t-89 79z" />
<glyph unicode="&#x417;" horiz-adv-x="1257" d="M63 76l62 190q234 -63 358 -63q182 0 275.5 60.5t93.5 176.5q0 102 -76 159.5t-203 57.5h-180v183h164q122 0 191 60t69 142q0 187 -262 187q-118 0 -219 -37v-203h-215v354q101 44 233 68.5t236 24.5q86 0 160 -10.5t143.5 -37t118.5 -67t78.5 -105t29.5 -147.5 q0 -85 -58 -170.5t-159 -126.5v-2q121 -41 188.5 -129.5t67.5 -200.5q0 -111 -47.5 -199t-130 -143t-189.5 -83.5t-231 -28.5q-118 0 -258.5 21.5t-239.5 68.5z" />
<glyph unicode="&#x418;" horiz-adv-x="1646" d="M82 0v190h149v1024h-145v191h573v-191h-139v-706h4l609 651v55h-154v191h586v-191h-148v-1024h148v-190h-572v190h140v717h-5q-460 -496 -608 -653v-64h137v-190h-575z" />
<glyph unicode="&#x419;" horiz-adv-x="1646" d="M82 0v190h149v1024h-145v191h573v-191h-139v-706h4l609 651v55h-154v191h586v-191h-148v-1024h148v-190h-572v190h140v717h-5q-460 -496 -608 -653v-64h137v-190h-575zM442 1802l119 92q62 -86 133 -132t129 -46q28 0 48.5 3t60.5 16.5t91.5 50t111.5 94.5l79 -78 q-90 -139 -193 -201.5t-204 -62.5q-199 0 -375 264z" />
<glyph unicode="&#x41a;" horiz-adv-x="1476" d="M88 0v193h139v1024h-139v190h567v-190h-135v-1024h135v-193h-567zM584 680v90l381 543q40 64 85 89t109 23q116 0 219 -53l-16 -162l-178 -16l-334 -446l391 -543l191 -19v-163q-48 -19 -110.5 -30t-104.5 -11q-78 -3 -128.5 19t-89.5 79z" />
<glyph unicode="&#x41b;" horiz-adv-x="1546" d="M31 172q76 28 131.5 66.5t94 95.5t62.5 121.5t37.5 160t18 194.5t4.5 241v166h-182v192h1247v-192h-141v-1024h141v-193h-563v193h127v1024h-361v-113q0 -108 -2.5 -193.5t-10 -178.5t-20.5 -166.5t-34 -148.5t-50.5 -132.5t-70.5 -111.5t-92.5 -93t-119 -69t-147.5 -46z " />
<glyph unicode="&#x41c;" horiz-adv-x="1972" d="M70 0v193h141v1019h-141v195h518q53 -115 131 -295q53 -116 172 -391q29 -60 92 -215h10q16 33 42 96.5t38 89.5q126 295 191 443q26 61 65.5 154.5t50.5 117.5h514v-195h-129v-1019h129v-193h-540v193h121v827h-5q-10 -22 -94 -223q-37 -91 -136 -312t-122 -280h-258 q-117 248 -299 657q-9 23 -32.5 76.5t-34.5 81.5h-7q0 -138 -1 -414t-1 -413h131v-193h-546z" />
<glyph unicode="&#x41d;" horiz-adv-x="1609" d="M86 0v195h143v1017h-143v195h565v-195h-129v-389h563v389h-127v195h564v-195h-142v-1017h142v-195h-564v195h127v444h-563v-444h129v-195h-565z" />
<glyph unicode="&#x41e;" horiz-adv-x="1515" d="M102 700q0 155 38.5 285.5t116.5 232t207.5 159t299.5 57.5q138 0 248 -38t184 -104t123.5 -159t71.5 -199.5t22 -228.5q0 -157 -41.5 -288.5t-121 -229t-204 -152.5t-282.5 -55q-170 0 -297.5 51.5t-207 147.5t-118.5 226.5t-39 294.5zM412 698q0 -252 83.5 -380 t268.5 -128q88 0 154 38t105.5 107.5t59 160.5t19.5 204q0 85 -8 155.5t-31 141t-59.5 118.5t-97.5 78t-142 30q-352 0 -352 -525z" />
<glyph unicode="&#x41f;" horiz-adv-x="1609" d="M88 0v193h141v1021h-141v195h1436v-195h-142v-1021h142v-193h-566v193h127v1021h-561v-1021h129v-193h-565z" />
<glyph unicode="&#x420;" horiz-adv-x="1296" d="M88 0v195h137v1017h-137v197h670q235 0 358 -113.5t123 -314.5q0 -63 -15.5 -123.5t-50.5 -117.5t-86.5 -100t-129.5 -69t-173 -26h-266v-350h182v-195h-612zM518 735h193q99 0 160 58t61 178q0 241 -230 241h-184v-477z" />
<glyph unicode="&#x421;" horiz-adv-x="1275" d="M102 700q0 75 8.5 145t30 145t55.5 138.5t88 121.5t123 98.5t165.5 64t211.5 23.5q206 0 375 -58v-395h-207v211q-68 18 -161 18q-379 0 -379 -505q0 -256 95 -374t324 -118q64 0 161 11t167 32l45 -205q-86 -33 -208.5 -53t-231.5 -20q-150 0 -265.5 37t-190 100.5 t-121.5 156.5t-66 196.5t-19 229.5z" />
<glyph unicode="&#x422;" horiz-adv-x="1290" d="M33 983v426h1227v-426h-207v229h-260v-1017h165v-195h-624v195h168v1017h-264l2 -229h-207z" />
<glyph unicode="&#x423;" horiz-adv-x="1366" d="M25 1214v195h514v-195h-121l160 -378l114 -295h10l111 299l145 374h-127v195h506v-195h-104l-418 -1015q-50 -121 -122.5 -173.5t-182.5 -52.5q-141 0 -283 43l45 189q109 -23 166 -23q44 0 74 23.5t53 77.5l33 82h-80l-389 849h-104z" />
<glyph unicode="&#x424;" horiz-adv-x="1787" d="M82 723q0 236 187.5 406.5t486.5 185.5v92h284l2 -94q154 -8 280.5 -58t209.5 -129t128.5 -181t45.5 -216q0 -246 -184.5 -410.5t-479.5 -181.5l-2 -137h-284v137q-309 13 -491.5 173t-182.5 413zM371 719q0 -160 101 -256.5t284 -116.5v756q-174 -15 -279.5 -122.5 t-105.5 -260.5zM1042 346q153 14 262 119.5t109 257.5t-94 259t-277 120v-756z" />
<glyph unicode="&#x425;" horiz-adv-x="1445" d="M57 0v197h123l355 530l-320 483h-154v199h601v-199h-111l207 -323l217 323h-119v199h516v-199h-123l-352 -493l352 -520h140l2 -197h-605v197h117l-225 354l-227 -354h120v-197h-514z" />
<glyph unicode="&#x426;" horiz-adv-x="1609" d="M84 0v190h143v1024h-143v193h565v-193h-129v-1024h563v1024h-127v193h564v-193h-142v-1024h183v-550h-220v360h-1257z" />
<glyph unicode="&#x427;" horiz-adv-x="1523" d="M49 1214v191h557v-191h-127v-266q0 -108 60.5 -156t173.5 -51q132 0 286 52v421h-127v191h558v-191h-140v-1024h140v-190h-570v190h139v394q-188 -49 -335 -49q-100 0 -183 19t-151 60t-106 113t-38 170v317h-137z" />
<glyph unicode="&#x428;" horiz-adv-x="2195" d="M88 0v190h141v1024h-141v193h551v-193h-125v-1024h440v1024h-118v193h524v-193h-119v-1024h440v1024h-120v193h548v-193h-141v-1024h141v-190h-2021z" />
<glyph unicode="&#x429;" horiz-adv-x="2195" d="M88 0v190h141v1024h-141v193h551v-193h-125v-1024h440v1024h-118v193h524v-193h-119v-1024h440v1024h-120v193h548v-193h-141v-1024h178v-552h-217v362h-1841z" />
<glyph unicode="&#x42a;" horiz-adv-x="1722" d="M37 1010v397h946v-190h-137l-2 -361h286q148 0 261 -47t180 -145.5t67 -237.5q0 -211 -125 -318.5t-337 -107.5h-770v193h145v1024h-307v-207h-207zM844 193h262q99 0 163 62t64 175t-69 174.5t-172 61.5h-248v-473z" />
<glyph unicode="&#x42b;" horiz-adv-x="2074" d="M88 0v193h145v1024h-145v192h586v-192h-148v-361h289q148 0 261 -47t180 -145.5t67 -237.5q0 -211 -126 -318.5t-339 -107.5h-770zM526 193h262q101 0 164.5 62t63.5 175t-69.5 174.5t-172.5 61.5h-248v-473zM1411 0v193h139v1024h-139v190h571v-190h-139v-1024h139v-193 h-571z" />
<glyph unicode="&#x42c;" horiz-adv-x="1415" d="M98 0v193h146v1024h-146v192h586v-192h-147v-361h288q148 0 261 -47t180 -145.5t67 -237.5q0 -211 -126 -318.5t-339 -107.5h-770zM537 193h262q101 0 164 62t63 175t-69.5 174.5t-172.5 61.5h-247v-473z" />
<glyph unicode="&#x42d;" horiz-adv-x="1273" d="M70 51q7 35 47 205q75 -18 170.5 -30.5t150.5 -12.5q212 0 320 113t110 315q-468 -6 -469 -6v190l469 -6q-5 187 -90.5 290t-263.5 103q-91 0 -186 -22v-186h-209v370q175 60 397 60q662 0 662 -705q0 -119 -21.5 -224.5t-72 -202.5t-127.5 -166.5t-195 -110.5t-266 -41 q-262 0 -426 67z" />
<glyph unicode="&#x42e;" horiz-adv-x="2152" d="M86 0v193h143v1024h-143v190h565v-190h-129v-394h266q14 134 56.5 241.5t116.5 192t191 131t269 46.5q138 0 246.5 -38.5t179.5 -104.5t117.5 -160.5t66 -199.5t19.5 -229q0 -158 -38 -287.5t-113.5 -227t-197.5 -151.5t-280 -54q-157 0 -276 46t-195.5 132.5t-117 206 t-46.5 272.5h-264v-446h129v-193h-565zM1081 696q0 -255 78 -382.5t262 -127.5q88 0 153 38t103 109t56 162t18 205q0 71 -5 130t-18 121t-37 109.5t-59.5 85.5t-89 58.5t-121.5 20.5q-81 0 -142 -29.5t-98 -77.5t-60 -118.5t-31.5 -143t-8.5 -160.5z" />
<glyph unicode="&#x42f;" horiz-adv-x="1443" d="M31 10v160l162 23l225 436q-71 20 -122 58.5t-78.5 87.5t-39.5 98.5t-12 101.5q0 94 29 172t85.5 137t146.5 92t206 33h698v-192h-135v-1024h139v-193h-567v193h137v389h-227l-225 -455q-37 -81 -79 -115.5t-126 -34.5q-119 0 -217 33zM469 983q0 -65 22.5 -110t61 -67 t77 -31t83.5 -9h192v451h-207q-100 0 -164.5 -62t-64.5 -172z" />
<glyph unicode="&#x430;" horiz-adv-x="1157" d="M66 270q0 122 92.5 205.5t259.5 93.5l280 19v49q0 93 -40 136.5t-144 43.5q-159 0 -307 -51q-34 121 -47 176q86 38 201 59t223 21q188 0 285.5 -80t97.5 -266v-486h153l15 -153q-121 -53 -267 -53q-36 0 -61.5 5t-47.5 18.5t-33.5 39.5t-12.5 66q-1 0 -2 1t-2 1 q-141 -135 -336 -135q-71 0 -126.5 19t-89 49t-54.5 70t-29 77t-8 75zM360 303q0 -71 34 -105t108 -34q45 0 97.5 23.5t94.5 62.5v205l-188 -19q-71 -7 -108.5 -43.5t-37.5 -89.5z" />
<glyph unicode="&#x431;" horiz-adv-x="1173" d="M82 643q2 186 31 291q80 306 444 448q311 123 373 154q12 -27 39 -81.5t39 -82.5q-72 -41 -238 -112q-74 -29 -120.5 -50t-101.5 -50.5t-89 -60.5t-66.5 -72.5t-51.5 -93.5t-28 -116q4 0 6 -2q55 79 143.5 124.5t194.5 45.5q115 0 199.5 -37t134 -105.5t73 -156.5 t23.5 -199q0 -102 -28 -189t-86.5 -159t-160 -113.5t-237.5 -41.5q-104 0 -186.5 26t-136.5 69.5t-91 105t-55 128.5t-22 144q-2 61 -2 186zM371 477q0 -48 4.5 -88t18.5 -80.5t37.5 -68t62.5 -45t92 -17.5q209 0 209 309q0 66 -8.5 116.5t-29.5 96.5t-62 70.5t-101 24.5 q-59 0 -103.5 -29t-69.5 -77t-37.5 -101.5t-12.5 -110.5z" />
<glyph unicode="&#x432;" horiz-adv-x="1140" d="M63 0v186h111v637h-108v181h636q170 0 257.5 -70.5t87.5 -196.5q0 -131 -115 -205q55 -24 89 -67.5t45 -85t11 -88.5q0 -133 -98 -212t-252 -79h-664zM449 180h213q66 0 102.5 37t36.5 92q0 53 -35.5 85t-103.5 32h-213v-246zM449 602h200q53 0 88 32t35 83 q0 112 -133 112h-190v-227z" />
<glyph unicode="&#x433;" horiz-adv-x="1026" d="M74 0v184h110v639h-106v181h907v-345h-188v164h-330v-639h149v-184h-542z" />
<glyph unicode="&#x434;" horiz-adv-x="1298" d="M41 180l115 6q41 40 69.5 95t43.5 105.5t23.5 124.5t10 124.5t2.5 132.5v55h-127v181h930l-2 -818l111 -6v-483h-216v303h-741v-303h-219v483zM446 186h377v637h-254v-69q0 -192 -24 -331t-99 -237z" />
<glyph unicode="&#x435;" horiz-adv-x="1089" d="M82 500q0 59 9.5 116.5t30.5 118.5t59 112.5t90 92.5t129 64.5t171 23.5q441 0 441 -489v-103h-643q-2 -130 55 -190t194 -60q148 0 310 64l61 -172q-183 -98 -416 -98q-491 0 -491 520zM373 610h377q-4 219 -179 219q-94 0 -143.5 -63.5t-54.5 -155.5z" />
<glyph unicode="&#x436;" horiz-adv-x="1783" d="M57 16v144l133 20l250 352l-221 291l-115 8l-14 150q34 19 85.5 31t98.5 12q58 0 96 -19.5t70 -68.5l271 -391v-62l-289 -428q-30 -42 -69 -58.5t-103 -16.5q-121 5 -193 36zM643 821v183h500v-183h-111v-639h113v-182h-498v182h103v639h-107zM1067 483v62l279 391 q33 49 70 68.5t95 19.5q106 0 183 -43l-13 -150l-116 -8l-230 -291l260 -352l134 -20v-144q-71 -31 -191 -36q-66 0 -105 16.5t-69 58.5z" />
<glyph unicode="&#x437;" horiz-adv-x="995" d="M41 51l51 182q153 -49 295 -49q234 0 234 148q0 47 -28 76t-63 38t-79 9h-134v153h111q168 4 168 115q0 46 -40.5 77t-117.5 31q-88 0 -164 -24v-115h-190v264q186 74 397 74q196 0 302 -73t106 -195q0 -72 -42 -127.5t-114 -87.5v-6q81 -24 129.5 -89.5t48.5 -144.5 q0 -151 -126 -238t-347 -87q-114 0 -223 20.5t-174 48.5z" />
<glyph unicode="&#x438;" horiz-adv-x="1359" d="M49 821v180h418v-614h8v-2q4 12 170 250l254 366h272q0 -134 1.5 -402.5t1.5 -403.5h135v-168q-104 -43 -219 -43q-203 0 -203 213v399h-10q-3 -4 -24.5 -37t-52.5 -77.5t-61 -86.5l-282 -395h-273v821h-135z" />
<glyph unicode="&#x439;" horiz-adv-x="1359" d="M49 821v180h418v-614h8v-2q4 12 170 250l254 366h272q0 -134 1.5 -402.5t1.5 -403.5h135v-168q-104 -43 -219 -43q-203 0 -203 213v399h-10q-3 -4 -24.5 -37t-52.5 -77.5t-61 -86.5l-282 -395h-273v821h-135zM289 1376l119 92q62 -86 133 -132t129 -46q22 0 36 1t46 9.5 t61.5 24.5t74.5 49t93 80l80 -78q-90 -139 -193 -201.5t-204 -62.5q-199 0 -375 264z" />
<glyph unicode="&#x43a;" horiz-adv-x="1224" d="M49 823v181h426v-820h113v-184h-520v184h120v639h-139zM508 485v64l287 387q32 49 70 68.5t96 19.5q105 0 182 -43l-15 -150l-114 -8l-236 -288l262 -355l134 -20v-144q-69 -31 -191 -36q-65 0 -103.5 16.5t-68.5 58.5z" />
<glyph unicode="&#x43b;" horiz-adv-x="1249" d="M27 164q76 32 122.5 74.5t72 111t34 150.5t8.5 215v108h-153v181h956v-820h121v-184h-522v184h114v639h-254v-65q0 -107 -6 -191.5t-22 -171t-46 -152t-74.5 -122.5t-111 -96.5t-153.5 -61.5z" />
<glyph unicode="&#x43c;" horiz-adv-x="1626" d="M53 821v183h451q6 -11 40.5 -73t76 -137.5t69.5 -127.5q33 -59 121 -228h8q31 69 113 226q69 135 180 340h432v-183h-125v-626h137v-168q-101 -43 -215 -43q-63 0 -103.5 16.5t-59.5 51.5t-25 68.5t-8 88.5v385h-8q-9 -18 -42.5 -86t-47.5 -92q-118 -215 -152 -289h-160 q-22 50 -157 283q-81 145 -103 196h-10v-606h-277v821h-135z" />
<glyph unicode="&#x43d;" horiz-adv-x="1302" d="M41 823v181h414v-398h391v398h284v-807h136v-170q-106 -45 -219 -45q-109 0 -155 44t-46 144v270h-391v-440h-287v823h-127z" />
<glyph unicode="&#x43e;" horiz-adv-x="1175" d="M82 500q0 109 30.5 202t90.5 166.5t160 115.5t229 42q106 0 191 -27.5t142.5 -75.5t96 -115t55.5 -143t17 -163q0 -86 -17.5 -161.5t-57 -142t-98 -114t-146 -75t-195.5 -27.5q-130 0 -227.5 40t-155.5 112t-86.5 163.5t-28.5 202.5zM375 500q0 -71 8.5 -123.5t31 -99 t66.5 -71t109 -24.5q211 0 211 318q0 321 -205 321q-63 0 -108 -27t-69 -74.5t-34 -101t-10 -118.5z" />
<glyph unicode="&#x43f;" horiz-adv-x="1318" d="M49 813v188h1215v-188h-140v-618h146v-168q-49 -21 -114.5 -33t-115.5 -12q-117 0 -158.5 50t-41.5 146v635h-375v-813h-281v813h-135z" />
<glyph unicode="&#x440;" horiz-adv-x="1243" d="M41 -242h139v1055h-139v191h408v-91l4 -2q61 51 148.5 80t158.5 29q91 0 162 -26t117 -70.5t75.5 -109t42 -136t12.5 -156.5q0 -121 -23.5 -217t-73 -170.5t-134.5 -114.5t-201 -40q-147 0 -272 61v-283h149v-190h-573v190zM465 250q39 -25 97.5 -42.5t111.5 -17.5 q207 0 207 328q0 88 -15 147t-44.5 89t-63.5 41.5t-80 11.5q-52 0 -113 -23.5t-100 -54.5v-479z" />
<glyph unicode="&#x441;" horiz-adv-x="1011" d="M82 492q0 77 12 146t46.5 142t88.5 125.5t146.5 86.5t212.5 34q183 0 317 -51v-303h-192v135q-58 10 -97 10q-247 0 -247 -317q0 -163 63.5 -237.5t185.5 -74.5q138 0 279 52l53 -181q-69 -35 -171.5 -56t-205.5 -21q-114 0 -200.5 26.5t-141 72t-88.5 112t-47.5 139 t-13.5 160.5z" />
<glyph unicode="&#x442;" horiz-adv-x="1112" d="M41 678v326h1030v-326h-190v145h-183v-639h140v-184h-557v184h133v639h-183v-145h-190z" />
<glyph unicode="&#x443;" d="M31 803v201h317l162 -533l86 -289h10q46 141 90 285l117 350h-115v187h484v-187h-99q-53 -149 -114.5 -318.5t-136 -374.5t-115.5 -317q-21 -60 -43.5 -100t-59.5 -76t-92.5 -53.5t-132.5 -17.5q-123 0 -250 41q16 97 33 184q103 -18 156 -18q45 0 75 13t53.5 51t36 69.5 t36.5 104.5l6 18h-136l-264 780h-104z" />
<glyph unicode="&#x444;" horiz-adv-x="1552" d="M82 502q0 229 146.5 373t408.5 151v260h-143v180h419v-440q268 -4 412.5 -141.5t144.5 -368.5q0 -234 -143.5 -380t-413.5 -152v-234h154v-182h-571v182h141v234q-122 4 -218.5 35t-158.5 80t-103 115.5t-58 137t-17 150.5zM356 504q0 -157 69.5 -244t211.5 -90v664 q-73 -4 -128.5 -31t-88 -72.5t-48.5 -102.5t-16 -124zM913 170q136 6 209.5 94t73.5 238q0 324 -283 332v-664z" />
<glyph unicode="&#x445;" horiz-adv-x="1202" d="M49 0l2 182h78l297 355l-211 288h-149l2 185h346l227 -318l109 135h-95v183h465v-183h-102l-273 -313l246 -332h142v-182h-537v182h72l-125 170l-142 -170h70v-182h-422z" />
<glyph unicode="&#x446;" horiz-adv-x="1345" d="M72 821v183h405v-818h385v635h-98v183h491v-183h-106v-635h125v-487h-219v301h-981v186h121v635h-123z" />
<glyph unicode="&#x447;" horiz-adv-x="1286" d="M35 821v185h422v-283q0 -93 33 -134.5t114 -41.5q116 0 205 45v414h287v-816h133v-167q-111 -43 -225 -43q-95 0 -145 51.5t-50 136.5v233q-133 -65 -305 -65q-332 0 -332 332v153h-137z" />
<glyph unicode="&#x448;" horiz-adv-x="1824" d="M66 819v182h407v-817h289v635h-84v182h455v-182h-89v-635h297v635h-86v182h486v-182h-113v-635h123v-184h-1683v184h120v635h-122z" />
<glyph unicode="&#x449;" horiz-adv-x="1830" d="M66 819v182h407v-817h289v635h-84v182h455v-182h-89v-635h297v635h-86v182h486v-182h-113v-635h125v-485h-217v301h-1468v184h120v635h-122z" />
<glyph unicode="&#x44a;" horiz-adv-x="1423" d="M29 659v345h710v-377h260q162 0 265.5 -82.5t103.5 -229.5q0 -148 -96.5 -231.5t-253.5 -83.5h-563v823h-234v-164h-192zM739 176h195q72 0 112.5 37.5t40.5 103.5q0 72 -44 108t-121 36h-183v-285z" />
<glyph unicode="&#x44b;" horiz-adv-x="1710" d="M49 825v179h422v-379h260q162 0 265.5 -82.5t103.5 -227.5q0 -147 -96.5 -231t-251.5 -84h-564v825h-139zM471 176h195q73 0 113 37.5t40 103.5q0 71 -45 107.5t-121 36.5h-182v-285zM1116 821v185h393v-809h146v-170q-101 -43 -230 -43q-110 0 -155 52t-45 161v624h-109 z" />
<glyph unicode="&#x44c;" horiz-adv-x="1157" d="M49 825v179h422v-379h260q162 0 265.5 -82.5t103.5 -227.5q0 -147 -96.5 -231t-251.5 -84h-564v825h-139zM471 176h195q73 0 113 37.5t40 103.5q0 71 -45 107.5t-121 36.5h-182v-285z" />
<glyph unicode="&#x44d;" horiz-adv-x="1030" d="M55 61l54 172q148 -51 272 -51q120 0 188.5 73t71.5 194l-330 -5v148l332 -4q-17 248 -217 248q-52 0 -129 -17v-125h-186l-5 277q148 57 336 57q494 0 494 -508q0 -87 -15.5 -163t-53 -146.5t-95 -120t-147 -79t-203.5 -29.5q-209 0 -367 79z" />
<glyph unicode="&#x44e;" horiz-adv-x="1687" d="M51 821v185h420v-404h164q12 91 47 166.5t93 134.5t147 92t200 33q125 0 220 -42t151.5 -115.5t84.5 -165.5t28 -201t-28 -200.5t-85.5 -165t-155.5 -115t-227 -41.5q-118 0 -208 35.5t-146 99.5t-86.5 146t-38.5 183h-160v-446h-285v821h-135zM915 500q0 -57 4.5 -100 t17.5 -86.5t35 -71t60 -45t90 -17.5q197 0 197 322q0 323 -197 323q-58 0 -100 -27.5t-64.5 -75.5t-32.5 -103t-10 -119z" />
<glyph unicode="&#x44f;" horiz-adv-x="1200" d="M35 4v158l139 18q15 26 70.5 118.5t74.5 129.5q-95 22 -144.5 94t-49.5 168q0 152 99 233t249 81l631 2v-185h-105v-624h134v-170q-102 -45 -220 -45q-107 0 -152.5 44t-47.5 144v223h-152q-18 -34 -80 -148.5t-80 -148.5q-34 -61 -76 -91t-112 -30q-90 0 -178 29z M403 684q0 -47 25.5 -77t59.5 -40t77 -10h148v270h-158q-71 0 -111.5 -37.5t-40.5 -105.5z" />
<glyph unicode="&#x451;" horiz-adv-x="1089" d="M82 500q0 59 9.5 116.5t30.5 118.5t59 112.5t90 92.5t129 64.5t171 23.5q441 0 441 -489v-103h-643q-2 -130 55 -190t194 -60q148 0 310 64l61 -172q-183 -98 -416 -98q-491 0 -491 520zM244 1257q0 50 34.5 84.5t81.5 34.5q54 0 88.5 -33.5t34.5 -85.5q0 -50 -34.5 -83 t-86.5 -33q-51 0 -84.5 33t-33.5 83zM373 610h377q-4 219 -179 219q-94 0 -143.5 -63.5t-54.5 -155.5zM653 1257q0 50 34.5 84.5t82.5 34.5q54 0 89.5 -33.5t35.5 -85.5q0 -50 -35.5 -83t-89.5 -33q-50 0 -83.5 33.5t-33.5 82.5z" />
<glyph unicode="&#x452;" horiz-adv-x="1239" d="M20 1284v182h447v-305h375v-112h-375v-195q156 78 295 78q208 0 303.5 -125t95.5 -385q0 -87 -13 -158.5t-46.5 -137t-86 -110.5t-136.5 -71.5t-193 -26.5q-31 0 -47 2l2 193q66 4 107.5 18t73.5 48t45.5 93.5t13.5 151.5q0 73 -10.5 127.5t-28 87.5t-43.5 53t-53.5 27.5 t-61.5 7.5q-98 0 -217 -61v-666h-289v1049h-104v112h104v123h-158z" />
<glyph unicode="&#x453;" horiz-adv-x="1026" d="M74 0v184h110v639h-106v181h907v-345h-188v164h-330v-639h149v-184h-542zM375 1249l301 346l149 -157l-356 -287z" />
<glyph unicode="&#x454;" horiz-adv-x="1011" d="M82 492q0 77 12 146t46.5 142t88.5 125.5t146.5 86.5t212.5 34q175 0 323 -55q0 -45 -1 -137t-1 -140h-190v113q-45 14 -109 14q-100 0 -162.5 -64.5t-74.5 -178.5l332 10v-154l-330 4q13 -258 243 -258q124 0 281 53l51 -170q-152 -79 -377 -79q-114 0 -200.5 26.5 t-141 71.5t-88.5 111t-47.5 138.5t-13.5 160.5z" />
<glyph unicode="&#x455;" horiz-adv-x="1021" d="M66 324h196l4 -119q33 -16 90 -25.5t105 -9.5q82 0 137 26.5t55 77.5q0 30 -13 52.5t-40 38t-51.5 24.5t-63.5 19q-171 48 -230 73q-147 65 -173 176q-6 27 -6 56q0 157 114 235t318 78q215 0 362 -78q0 -168 2 -254h-198l-2 115q-64 25 -146 25q-71 0 -115 -27.5 t-44 -77.5q0 -29 29 -51.5t52 -30.5t74 -21q2 -1 3.5 -1.5l3 -1t3.5 -0.5q12 -3 38 -10q37 -10 56.5 -15t56 -17t58 -21.5t53 -26t50 -33t40.5 -41t34 -51t20 -61t8 -73.5q0 -146 -120.5 -219t-346.5 -73q-252 0 -411 79q0 179 -2 263z" />
<glyph unicode="&#x456;" horiz-adv-x="706" d="M102 813v191h387v-807h146v-170q-47 -21 -112 -33t-115 -12q-109 0 -155 44t-48 144v643h-103zM172 1303q0 71 49 120.5t119 49.5q69 0 119.5 -50t50.5 -120q0 -69 -50.5 -119.5t-119.5 -50.5q-70 0 -119 50t-49 120z" />
<glyph unicode="&#x457;" horiz-adv-x="706" d="M-8 1243q0 50 35 84.5t82 34.5q54 0 88 -33t34 -86q0 -50 -34 -83.5t-86 -33.5q-51 0 -85 33.5t-34 83.5zM96 821v185h393v-809h146v-170q-47 -21 -112 -33t-115 -12q-109 0 -154 44t-47 144v651h-111zM401 1243q0 50 34.5 84.5t82.5 34.5q54 0 89.5 -33.5t35.5 -85.5 q0 -50 -35.5 -83.5t-89.5 -33.5q-50 0 -83.5 34t-33.5 83z" />
<glyph unicode="&#x458;" horiz-adv-x="671" d="M-49 -301q85 50 134 90.5t76.5 90t35.5 99t8 130.5v704h-125v191h412v-885q0 -253 -104.5 -387.5t-358.5 -208.5zM172 1303q0 71 50 120.5t120 49.5q68 0 119 -50t51 -120q0 -69 -51 -119.5t-119 -50.5q-70 0 -120 50.5t-50 119.5z" />
<glyph unicode="&#x459;" horiz-adv-x="1712" d="M31 170q61 26 102.5 59t68.5 74.5t41 104t19.5 133t5.5 176.5v106h-153v181h911v-377h262q161 0 265 -83t104 -229q0 -148 -97 -231.5t-253 -83.5h-564v825l-213 -2v-63q0 -107 -6 -191.5t-22 -171t-46 -152t-74.5 -122.5t-111 -96.5t-153.5 -61.5zM1026 176h197 q72 0 112.5 37.5t40.5 103.5q0 71 -44.5 107.5t-119.5 36.5h-186v-285z" />
<glyph unicode="&#x45a;" horiz-adv-x="1771" d="M51 823v181h412v-404h340v225h-127v179h409v-388h261q164 0 267 -78t103 -223q0 -148 -97 -231.5t-253 -83.5h-563v444h-340v-444h-285v823h-127zM1085 176h203q68 0 108 36t40 101q0 71 -43 104.5t-117 33.5h-191v-275z" />
<glyph unicode="&#x45b;" horiz-adv-x="1310" d="M41 1296v170h424v-292h385v-111h-385v-236q78 54 167.5 83.5t168.5 29.5q95 0 160.5 -26.5t100 -76t48.5 -107t14 -132.5v-401h136v-170q-109 -45 -222 -45q-107 0 -152.5 44t-45.5 144v365q0 96 -31.5 141t-118.5 45q-49 0 -112 -23t-113 -55v-643h-289v1063h-104v111 h104v122h-135z" />
<glyph unicode="&#x45c;" horiz-adv-x="1224" d="M49 823v181h426v-820h113v-184h-520v184h120v639h-139zM481 1188l301 346l150 -158l-357 -286zM508 485v64l287 387q32 49 70 68.5t96 19.5q105 0 182 -43l-15 -150l-114 -8l-236 -288l262 -355l134 -20v-144q-69 -31 -191 -36q-65 0 -103.5 16.5t-68.5 58.5z" />
<glyph unicode="&#x45e;" d="M43 801v203h317q175 -560 244 -797h8q117 374 195 606h-111v191h480v-191h-97l-370 -1040q-39 -109 -106.5 -161t-196.5 -52q-140 0 -267 41l39 204q103 -18 154 -18q64 0 94.5 18.5t46.5 59.5l62 158h-129q-45 132 -127 392t-125 386h-111zM256 1391l119 92 q62 -86 133 -132t129 -46q28 0 48 3t60.5 16.5t91.5 49.5t111 94l80 -77q-62 -95 -133.5 -156.5t-135 -85t-128.5 -23.5q-198 0 -375 265z" />
<glyph unicode="&#x45f;" horiz-adv-x="1345" d="M72 821v183h405v-820h385v637h-98v183h489v-183h-104v-635q12 0 61.5 -1t63.5 -1v-184h-492v-324h-221v324h-487v184h121v637h-123z" />
<glyph unicode="&#x490;" horiz-adv-x="1267" d="M88 0v193h143v1024h-141v190h938v268h207v-458h-711v-1024h193v-193h-629z" />
<glyph unicode="&#x491;" horiz-adv-x="1019" d="M74 0v184h110v637h-108v183h708v233h193v-416h-510v-637h147v-184h-540z" />
<glyph unicode="&#x4d9;" horiz-adv-x="1089" d="M88 473v72h645q0 280 -252 280q-141 0 -309 -63l-59 168q178 98 413 98q116 0 204 -28t142 -74t87.5 -114.5t46 -140t12.5 -159.5q0 -50 -6.5 -99t-22.5 -102t-40 -99.5t-63 -89t-88.5 -72.5t-118.5 -48t-151 -18q-93 0 -167 23t-120.5 64.5t-78 89.5t-47 107 t-21.5 106.5t-6 98.5zM348 432q0 -122 40.5 -187t139.5 -65q52 0 90.5 20t61 56.5t34 79.5t13.5 96h-379z" />
<glyph unicode="&#x2000;" horiz-adv-x="979" />
<glyph unicode="&#x2001;" horiz-adv-x="1958" />
<glyph unicode="&#x2002;" horiz-adv-x="979" />
<glyph unicode="&#x2003;" horiz-adv-x="1958" />
<glyph unicode="&#x2004;" horiz-adv-x="652" />
<glyph unicode="&#x2005;" horiz-adv-x="489" />
<glyph unicode="&#x2006;" horiz-adv-x="326" />
<glyph unicode="&#x2007;" horiz-adv-x="326" />
<glyph unicode="&#x2008;" horiz-adv-x="244" />
<glyph unicode="&#x2009;" horiz-adv-x="391" />
<glyph unicode="&#x200a;" horiz-adv-x="108" />
<glyph unicode="&#x2010;" horiz-adv-x="802" d="M121 449v202h561v-202h-561z" />
<glyph unicode="&#x2011;" horiz-adv-x="802" d="M121 449v202h561v-202h-561z" />
<glyph unicode="&#x2012;" horiz-adv-x="802" d="M121 449v202h561v-202h-561z" />
<glyph unicode="&#x2013;" horiz-adv-x="1024" d="M82 438v176h864v-176h-864z" />
<glyph unicode="&#x2014;" horiz-adv-x="2048" d="M102 438v176h1840v-176h-1840z" />
<glyph unicode="&#x2018;" horiz-adv-x="522" d="M102 1104q0 109 79 219.5t184 163.5l67 -92q-103 -85 -113 -193q101 -21 101 -133q0 -60 -45 -103.5t-111 -43.5q-79 0 -120.5 52.5t-41.5 129.5z" />
<glyph unicode="&#x2019;" horiz-adv-x="522" d="M106 1016q99 83 113 192q-51 10 -76.5 45t-25.5 88q0 61 44.5 104.5t112.5 43.5q77 0 118.5 -53t41.5 -129q0 -110 -76.5 -219.5t-183.5 -163.5z" />
<glyph unicode="&#x201a;" horiz-adv-x="534" d="M98 -197q103 97 117 207q-111 11 -111 133q0 60 44.5 103t113.5 43q78 0 120 -52t42 -128q0 -108 -71.5 -219t-182.5 -177z" />
<glyph unicode="&#x201c;" horiz-adv-x="862" d="M96 1104q0 111 76.5 220t183.5 163l34.5 -46t35.5 -46q-105 -87 -115 -193q50 -10 76.5 -45t26.5 -88q0 -60 -45 -103.5t-113 -43.5q-78 0 -119 52.5t-41 129.5zM455 1104q0 110 77 220t181 163q10 -12 33 -43.5t38 -48.5q-104 -86 -114 -193q102 -21 102 -133 q0 -60 -46 -103.5t-112 -43.5q-79 0 -119 52t-40 130z" />
<glyph unicode="&#x201d;" horiz-adv-x="862" d="M98 1016q104 84 115 192q-100 21 -100 133q0 62 44 105t113 43q77 0 118.5 -53t41.5 -129q0 -109 -77 -219t-183 -164zM459 1016q51 45 79.5 90t32.5 102q-50 10 -76 45.5t-26 87.5q0 61 46 104.5t114 43.5q77 0 118 -53t41 -129q0 -110 -76.5 -219.5t-183.5 -163.5z" />
<glyph unicode="&#x201e;" horiz-adv-x="917" d="M98 -197q103 97 117 207q-111 11 -111 133q0 60 44.5 103t113.5 43q78 0 120 -52t42 -128q0 -108 -71.5 -219t-182.5 -177zM485 -197q55 52 83 100.5t32 106.5q-55 6 -81.5 42t-26.5 91q0 60 44 103t113 43q79 0 121.5 -52t42.5 -128q0 -108 -72.5 -218.5t-183.5 -177.5z " />
<glyph unicode="&#x2026;" horiz-adv-x="1548" d="M104 137q0 62 46 107t110 45q63 0 108.5 -45t45.5 -107q0 -64 -46 -109.5t-108 -45.5q-65 0 -110.5 45.5t-45.5 109.5zM612 137q0 62 45 107t109 45q63 0 108.5 -45t45.5 -107q0 -64 -45.5 -109.5t-108.5 -45.5t-108.5 45.5t-45.5 109.5zM1135 137q0 61 45.5 106.5 t107.5 45.5q64 0 109 -45t45 -107q0 -64 -45 -109.5t-107 -45.5q-63 0 -109 45.5t-46 109.5z" />
<glyph unicode="&#x202f;" horiz-adv-x="391" />
<glyph unicode="&#x2039;" horiz-adv-x="708" d="M113 365v77l338 367l116 -82l-213 -324l211 -319l-116 -86z" />
<glyph unicode="&#x203a;" horiz-adv-x="708" d="M113 727l116 82l338 -367v-77l-334 -367l-116 86l209 319z" />
<glyph unicode="&#x205f;" horiz-adv-x="489" />
<glyph unicode="&#x20ac;" d="M59 537v102h875v-102h-490q23 -160 108.5 -247t250.5 -87q65 0 151 18v139h195v-323q-74 -24 -183.5 -39.5t-203.5 -15.5q-149 0 -261.5 41.5t-183 118t-109 174.5t-48.5 221h-101zM59 729v107h103q10 86 35 162.5t73.5 149t116 124t168.5 83t225 31.5q183 0 344 -53 v-317h-194v137q-72 21 -146 21q-293 0 -340 -338h490v-107h-875z" />
<glyph unicode="&#x2122;" horiz-adv-x="1751" d="M61 1176v231h648v-231h-119v116h-121v-481h88v-111h-348v111h88v481h-117v-116h-119zM754 700v111h77v483h-77v113h282l82 -176q11 -23 50 -107.5t55 -117.5h2q4 8 44.5 99t57.5 126q44 86 80 176h285v-113h-72v-483h72v-111h-303v111h65v358h-4q-52 -115 -98 -208 l-60 -134h-137q-4 7 -29 63t-36 75l-97 198h-2v-352h72v-111h-309z" />
<glyph unicode="&#x25fc;" horiz-adv-x="1013" d="M0 0v1014h1014v-1014h-1014z" />
</font>
</defs>
</svg>
